<svg xmlns="http://www.w3.org/2000/svg" width="143.515" height="116.796" viewBox="0 0 143.515 116.796">
  <path id="car-accident" d="M61.116,73.585a2.433,2.433,0,0,1,2.433-2.433H83.333a7.831,7.831,0,0,1,6.626,3.627L101.692,93.11a2.433,2.433,0,1,1-4.1,2.624L85.858,77.4a2.983,2.983,0,0,0-2.525-1.382H63.549A2.435,2.435,0,0,1,61.116,73.585Zm-7.271,2.433h1.1a2.433,2.433,0,0,0,0-4.867h-1.1a2.433,2.433,0,0,0,0,4.867Zm29.439,6.905,6.983,10.91a5.5,5.5,0,0,1-4.628,8.459H42.309a5.5,5.5,0,0,1-5.284-7.028L40.2,84.354a5.527,5.527,0,0,1,5.284-3.962H78.655a5.47,5.47,0,0,1,4.629,2.527Zm2.88,13.529L79.185,85.544a.629.629,0,0,0-.53-.289H45.479a.633.633,0,0,0-.6.453l-3.17,10.91a.627.627,0,0,0,.6.805H85.639a.629.629,0,0,0,.53-.973Zm-41,26.244a6.192,6.192,0,1,1-6.191-6.191,6.192,6.192,0,0,1,6.191,6.191Zm-4.867,0a1.325,1.325,0,1,0-1.324,1.324A1.325,1.325,0,0,0,40.3,122.7Zm65.867,0a6.191,6.191,0,1,1-6.191-6.191A6.191,6.191,0,0,1,106.168,122.7Zm-4.867,0a1.324,1.324,0,1,0-1.324,1.324A1.324,1.324,0,0,0,101.3,122.7Zm53.735,13.676a2.435,2.435,0,0,1-2.433,2.433h-14.9a2.433,2.433,0,0,1,0-4.867h6.2V103.93l-2.116-6.257-2.591,2.573,1.766,5.233a2.425,2.425,0,0,1,.128.779v19.509a2.433,2.433,0,1,1-4.867,0V106.649l-.565-1.669-3.013,12.03a2.433,2.433,0,0,1-2.3,1.841h-.058a2.432,2.432,0,0,1-2.329-1.73l-.537-1.773v7.345a2.433,2.433,0,0,1-2.433,2.433h-9.112a16.054,16.054,0,0,1-4.39,8.812h6.417a2.433,2.433,0,1,1,0,4.867H13.954a2.433,2.433,0,1,1,0-4.867H27.461a16.062,16.062,0,0,1-4.39-8.812H13.96a2.435,2.435,0,0,1-2.433-2.433V107.137A12.6,12.6,0,0,1,19.852,95.31l5.84-2.086a3.012,3.012,0,0,0,1.867-1.986l4.19-14.416A7.908,7.908,0,0,1,39.3,71.146h5.16a2.433,2.433,0,0,1,0,4.867H39.3a3.012,3.012,0,0,0-2.884,2.161L32.228,92.59a7.89,7.89,0,0,1-4.9,5.209l-5.84,2.086a7.715,7.715,0,0,0-5.1,7.246v4.82H27a16.069,16.069,0,0,1,27.873,8.31h21.97a2.433,2.433,0,0,1,0,4.867H54.877a16.054,16.054,0,0,1-4.39,8.812H88.462A16.008,16.008,0,0,1,85,116.817H60.161a2.433,2.433,0,1,1,0-4.867H88.01a16.033,16.033,0,0,1,23.934,0h10.617v-4.669a5.945,5.945,0,0,0-.5-2.364L105.6,103.663a2.432,2.432,0,0,1-.973-4.565l11.088-6.013-8.384-11.713a2.433,2.433,0,0,1,3.358-3.421l10.446,7.185,3.948-11.494-.687-2.034c-.509.032-1.019.05-1.53.05A24.824,24.824,0,1,1,147.63,48.01a2.436,2.436,0,1,1-4.867-.234,19.957,19.957,0,1,0-3.113,9.794,2.434,2.434,0,1,1,4.106,2.613,24.751,24.751,0,0,1-7.054,7.231l6.5,19.231,4.412-1.157a2.433,2.433,0,0,1,2.332,4.081l-4.311,4.281,3.009,8.9a2.463,2.463,0,0,1,.128.779v30.406h3.824a2.435,2.435,0,0,1,2.442,2.438ZM136.352,88.439l2.136-.556-6.127-18.134a24.573,24.573,0,0,1-3.1,1.055l.577,1.709c.026.054.067.1.09.154ZM16.393,120.26h6.675a15.927,15.927,0,0,1,.922-3.443h-7.6Zm22.584,13.675a11.243,11.243,0,1,0-11.243-11.242A11.242,11.242,0,0,0,38.977,133.935Zm61,0a11.243,11.243,0,1,0-11.241-11.242A11.243,11.243,0,0,0,99.977,133.935Zm22.584-13.679v-3.439h-7.6a16.008,16.008,0,0,1,.922,3.443ZM140.1,92.487l-4.589,1.2a2.442,2.442,0,0,1-2.87-1.436L127.866,80.51l-3.173,9.237a2.433,2.433,0,0,1-3.681,1.214l-1.646-1.133,1.906,2.668a2.435,2.435,0,0,1-.819,3.556L114.2,99.441l12.156.929a2.432,2.432,0,0,1,2.15,1.721l1.571,5.192,1.448-5.778a2.45,2.45,0,0,1,.645-1.135Zm-11.864,41.448h-1.229a2.433,2.433,0,1,0,0,4.867h1.229a2.433,2.433,0,0,0,0-4.867Z" transform="translate(-11.521 -22.01)"/>
</svg>
