<svg id="car" xmlns="http://www.w3.org/2000/svg" width="126.229" height="100.983" viewBox="0 0 126.229 100.983">
  <g id="Group_12679" data-name="Group 12679" transform="translate(33.662 46.284)">
    <g id="Group_12678" data-name="Group 12678" transform="translate(0 0)">
      <path id="Path_193077" data-name="Path 193077" d="M186.294,230.928l-6.311-6.311a2.1,2.1,0,0,0-1.487-.616H136.419a2.1,2.1,0,0,0-1.487.616l-6.311,6.311a2.1,2.1,0,0,0-.488,2.207l8.415,23.142a2.1,2.1,0,0,0,1.975,1.384h37.869a2.1,2.1,0,0,0,1.975-1.384l8.415-23.142A2.1,2.1,0,0,0,186.294,230.928ZM140,253.453l-7.454-20.5,4.363-4.363,5.327,24.861Zm6.539,0-5.409-25.246h5.958l1.8,25.246Zm8.819,0H153.1l-1.8-25.246h4.052Zm6.457,0h-2.249V228.208h4.052Zm4.218,0,1.8-25.246h5.958l-5.409,25.246Zm8.891,0h-2.236l5.327-24.861,4.363,4.363Z" transform="translate(-128.004 -224)"/>
    </g>
  </g>
  <g id="Group_12681" data-name="Group 12681" transform="translate(8.415 65.218)">
    <g id="Group_12680" data-name="Group 12680">
      <path id="Path_193078" data-name="Path 193078" d="M61.3,307.842,57.1,297.323A2.1,2.1,0,0,0,55.142,296H34.1a2.1,2.1,0,0,0-2.1,2.1v10.519a2.1,2.1,0,0,0,2.1,2.1H59.35a2.1,2.1,0,0,0,1.954-2.884Zm-25.1-1.323v-6.311h17.51l2.525,6.311Z" transform="translate(-32 -296)"/>
    </g>
  </g>
  <g id="Group_12683" data-name="Group 12683" transform="translate(88.359 65.218)">
    <g id="Group_12682" data-name="Group 12682">
      <path id="Path_193079" data-name="Path 193079" d="M363.346,296H342.308a2.1,2.1,0,0,0-1.954,1.323l-4.208,10.519a2.1,2.1,0,0,0,1.954,2.884h25.246a2.1,2.1,0,0,0,2.1-2.1V298.1A2.1,2.1,0,0,0,363.346,296Zm-2.1,10.519H341.207l2.525-6.311h17.51Z" transform="translate(-335.995 -296)"/>
    </g>
  </g>
  <g id="Group_12685" data-name="Group 12685" transform="translate(94.67 46.284)">
    <g id="Group_12684" data-name="Group 12684">
      <path id="Path_193080" data-name="Path 193080" d="M381.034,224H372a10.466,10.466,0,0,0-9.768,6.614l-2.091,5.228a2.1,2.1,0,0,0,1.954,2.884h14.727a6.311,6.311,0,0,0,6.311-6.311V226.1A2.1,2.1,0,0,0,381.034,224Zm-2.1,8.415a2.1,2.1,0,0,1-2.1,2.1H365.207l.938-2.344A6.28,6.28,0,0,1,372,228.207h6.926Z" transform="translate(-359.995 -224)"/>
    </g>
  </g>
  <g id="Group_12687" data-name="Group 12687" transform="translate(8.415 46.284)">
    <g id="Group_12686" data-name="Group 12686">
      <path id="Path_193081" data-name="Path 193081" d="M54.993,235.842,52.9,230.614A10.466,10.466,0,0,0,43.133,224H34.1a2.1,2.1,0,0,0-2.1,2.1v6.311a6.311,6.311,0,0,0,6.311,6.311H53.038a2.1,2.1,0,0,0,1.954-2.884Zm-16.681-1.323a2.1,2.1,0,0,1-2.1-2.1v-4.208h6.926a6.28,6.28,0,0,1,5.859,3.968l.938,2.344Z" transform="translate(-32 -224)"/>
    </g>
  </g>
  <g id="Group_12689" data-name="Group 12689" transform="translate(23.141 8.415)">
    <g id="Group_12688" data-name="Group 12688">
      <path id="Path_193082" data-name="Path 193082" d="M167.792,102.361l-8.415-21.038A2.1,2.1,0,0,0,157.422,80H98.515a2.1,2.1,0,0,0-1.954,1.323l-8.415,21.038a2.1,2.1,0,0,0,1.954,2.884h75.737a2.1,2.1,0,0,0,1.954-2.884Zm-74.584-1.323L99.94,84.208H156l6.732,16.831Z" transform="translate(-87.995 -80)"/>
    </g>
  </g>
  <g id="Group_12691" data-name="Group 12691" transform="translate(0 0)">
    <g id="Group_12690" data-name="Group 12690">
      <path id="Path_193083" data-name="Path 193083" d="M114.479,79.557h5.438a6.311,6.311,0,1,0,0-12.623H115.71a6.3,6.3,0,0,0-5.977,4.378L99.82,51.488A6.28,6.28,0,0,0,94.175,48H30.122a6.311,6.311,0,0,0-5.8,3.825L16.256,70.647a6.311,6.311,0,0,0-5.737-3.713H6.311a6.311,6.311,0,0,0,0,12.623H11.75l-9.9,9.9A6.265,6.265,0,0,0,0,93.922v31.919A10.538,10.538,0,0,0,8.415,136.15v6.522a6.311,6.311,0,0,0,6.311,6.311h8.415a6.311,6.311,0,0,0,6.311-6.311V136.36H96.775v6.311a6.311,6.311,0,0,0,6.311,6.311H111.5a6.311,6.311,0,0,0,6.311-6.311V136.15a10.538,10.538,0,0,0,8.415-10.309V93.922a6.273,6.273,0,0,0-1.849-4.462Zm-.873-6.311a2.1,2.1,0,0,1,2.1-2.1h4.208a2.1,2.1,0,1,1,0,4.208h-6.311ZM6.311,75.35a2.1,2.1,0,1,1,0-4.208h4.208a2.1,2.1,0,0,1,2.1,2.1v2.1Zm18.934,67.322a2.1,2.1,0,0,1-2.1,2.1H14.727a2.1,2.1,0,0,1-2.1-2.1V136.36H25.246Zm88.36,0a2.1,2.1,0,0,1-2.1,2.1h-8.415a2.1,2.1,0,0,1-2.1-2.1V136.36h12.623Zm8.415-16.831a6.311,6.311,0,0,1-6.311,6.311H10.519a6.311,6.311,0,0,1-6.311-6.311V93.922a2.1,2.1,0,0,1,.616-1.487L16.5,80.758,28.191,53.482a2.1,2.1,0,0,1,1.931-1.275H94.175a2.089,2.089,0,0,1,1.881,1.163L109.773,80.8,121.4,92.435a2.1,2.1,0,0,1,.616,1.487Z" transform="translate(0 -48)"/>
    </g>
  </g>
</svg>
