<svg id="couple" xmlns="http://www.w3.org/2000/svg" width="126.106" height="112.991" viewBox="0 0 126.106 112.991">
  <g id="Group_12693" data-name="Group 12693" transform="translate(0 0)">
    <g id="Group_12692" data-name="Group 12692">
      <path id="Path_193084" data-name="Path 193084" d="M62.815,84.22l-12.1-3.668L49.4,77.92a1.846,1.846,0,0,0-2.2-.937v-.458a21.519,21.519,0,0,0,8.89-15.85,6.146,6.146,0,0,0,3.777-9.15,7.287,7.287,0,0,0,.479-12.666,6.216,6.216,0,0,0-8.371-7.231,19.155,19.155,0,0,0-12.974-5H30.264a19.217,19.217,0,0,0-12.975,5,6.217,6.217,0,0,0-8.37,7.231,7.287,7.287,0,0,0,.474,12.664,6.153,6.153,0,0,0,3.781,9.152A21.516,21.516,0,0,0,22.044,76.51v.466a1.846,1.846,0,0,0-2.176.944l-1.315,2.629L5.99,84.318A8.354,8.354,0,0,0,0,92.369v45.4a1.847,1.847,0,0,0,3.695,0v-45.4c0-.135.006-.269.017-.4L11.1,99.351a6.851,6.851,0,0,1,2.02,4.877v33.539a1.847,1.847,0,0,0,3.695,0V104.227a10.522,10.522,0,0,0-3.1-7.489L5.573,88.6a4.743,4.743,0,0,1,1.479-.746l8.323-2.5a49.308,49.308,0,0,0,18.237,22.909,1.847,1.847,0,0,0,2.049,0A49,49,0,0,0,53.919,85.383l7.824,2.373a1.847,1.847,0,0,0,1.072-3.536ZM47.757,82.888l-6.242,7.8a.32.32,0,0,1-.27.127.328.328,0,0,1-.266-.135l-3.537-4.716,9.483-4.742Zm-13.121.351-8.9-4.449v-.124a21.5,21.5,0,0,0,17.775.009V78.8Zm19.673-48.37a2.52,2.52,0,0,1,2.1,3.913,1.847,1.847,0,0,0,1.045,2.8,3.619,3.619,0,1,1-3.614,1.026,1.847,1.847,0,0,0-.585-2.928,2.518,2.518,0,0,1,1.049-4.809ZM9.159,45.044a3.618,3.618,0,0,1,2.654-3.463,1.847,1.847,0,0,0,1.045-2.8,2.527,2.527,0,1,1,3.154.9,1.847,1.847,0,0,0-.585,2.928,3.611,3.611,0,1,1-6.268,2.437ZM16.81,59.073a1.847,1.847,0,0,0-1.847-1.847,2.679,2.679,0,0,1-2.723-2.087,2.515,2.515,0,0,1,1.929-2.9,1.853,1.853,0,0,0,.208-.061,7.323,7.323,0,0,0,5.712-7.133,7.225,7.225,0,0,0-.765-3.233,6.189,6.189,0,0,0,.853-7.8,15.539,15.539,0,0,1,10.087-3.693h8.744A15.494,15.494,0,0,1,49.1,34.006a6.189,6.189,0,0,0,.85,7.806,7.222,7.222,0,0,0-.765,3.233,7.324,7.324,0,0,0,5.91,7.176c.057.023.115.044.175.062a2.521,2.521,0,0,1,1.764,2.857,2.679,2.679,0,0,1-2.723,2.087,1.847,1.847,0,0,0-1.847,1.847,17.826,17.826,0,0,1-35.652,0ZM21.761,82.4l.585-1.17,9.484,4.742-3.537,4.716a.328.328,0,0,1-.266.135.309.309,0,0,1-.27-.127l-6.193-7.741A1.855,1.855,0,0,0,21.761,82.4ZM34.636,104.49A46.3,46.3,0,0,1,20.024,86.937L24.873,93a4.005,4.005,0,0,0,3.147,1.514h.065A4.006,4.006,0,0,0,31.249,92.9l1.54-2.053V98.42a1.847,1.847,0,1,0,3.695,0V90.846l1.54,2.053a4.006,4.006,0,0,0,3.163,1.613h.065A4.005,4.005,0,0,0,44.4,93l4.864-6.08A46.113,46.113,0,0,1,34.636,104.49Z" transform="translate(0 -26.623)"/>
    </g>
  </g>
  <g id="Group_12695" data-name="Group 12695" transform="translate(28.417 37.161)">
    <g id="Group_12694" data-name="Group 12694">
      <path id="Path_193085" data-name="Path 193085" d="M127.131,177.912a1.847,1.847,0,0,0-2.6.271,3.622,3.622,0,0,1-5.874,0,1.847,1.847,0,1,0-2.869,2.327,7.309,7.309,0,0,0,11.613,0A1.847,1.847,0,0,0,127.131,177.912Z" transform="translate(-115.377 -177.499)"/>
    </g>
  </g>
  <g id="Group_12697" data-name="Group 12697" transform="translate(24.045 26.231)">
    <g id="Group_12696" data-name="Group 12696">
      <path id="Path_193086" data-name="Path 193086" d="M99.472,133.124a1.847,1.847,0,0,0-1.847,1.847v2.186a1.847,1.847,0,1,0,3.694,0v-2.186A1.847,1.847,0,0,0,99.472,133.124Z" transform="translate(-97.625 -133.124)"/>
    </g>
  </g>
  <g id="Group_12699" data-name="Group 12699" transform="translate(41.532 26.231)">
    <g id="Group_12698" data-name="Group 12698">
      <path id="Path_193087" data-name="Path 193087" d="M170.472,133.124a1.847,1.847,0,0,0-1.847,1.847v2.186a1.847,1.847,0,0,0,3.695,0v-2.186A1.847,1.847,0,0,0,170.472,133.124Z" transform="translate(-168.625 -133.124)"/>
    </g>
  </g>
  <g id="Group_12701" data-name="Group 12701" transform="translate(52.462 65.578)">
    <g id="Group_12700" data-name="Group 12700">
      <path id="Path_193088" data-name="Path 193088" d="M222.711,293.415a1.847,1.847,0,0,0-2.612,0l-4,4A10.522,10.522,0,0,0,213,304.9V338.44a1.847,1.847,0,1,0,3.695,0V304.9a6.852,6.852,0,0,1,2.02-4.876l4-4A1.847,1.847,0,0,0,222.711,293.415Z" transform="translate(-213 -292.874)"/>
    </g>
  </g>
  <g id="Group_12703" data-name="Group 12703" transform="translate(87.437 52.462)">
    <g id="Group_12702" data-name="Group 12702">
      <path id="Path_193089" data-name="Path 193089" d="M366.756,240.037a1.847,1.847,0,0,0-2.6.271,3.622,3.622,0,0,1-5.874,0,1.847,1.847,0,0,0-2.869,2.327,7.309,7.309,0,0,0,11.613,0A1.847,1.847,0,0,0,366.756,240.037Z" transform="translate(-355.002 -239.624)"/>
    </g>
  </g>
  <g id="Group_12705" data-name="Group 12705" transform="translate(72.135 85.251)">
    <g id="Group_12704" data-name="Group 12704">
      <path id="Path_193090" data-name="Path 193090" d="M294.722,372.749a1.847,1.847,0,0,0-1.847,1.847v24.045a1.847,1.847,0,0,0,3.694,0V374.6A1.847,1.847,0,0,0,294.722,372.749Z" transform="translate(-292.875 -372.749)"/>
    </g>
  </g>
  <g id="Group_12707" data-name="Group 12707" transform="translate(111.482 85.251)">
    <g id="Group_12706" data-name="Group 12706">
      <path id="Path_193091" data-name="Path 193091" d="M454.472,372.749a1.847,1.847,0,0,0-1.847,1.847v24.045a1.847,1.847,0,0,0,3.694,0V374.6A1.847,1.847,0,0,0,454.472,372.749Z" transform="translate(-452.625 -372.749)"/>
    </g>
  </g>
  <g id="Group_12709" data-name="Group 12709" transform="translate(61.206 8.744)">
    <g id="Group_12708" data-name="Group 12708">
      <path id="Path_193092" data-name="Path 193092" d="M307.225,126.007a8.373,8.373,0,0,0-2.576-12.55c0-.1.007-.2.007-.3a7.3,7.3,0,0,0-3.06-5.952c.126-.426.242-.855.341-1.29a20.7,20.7,0,0,0,.464-3.391,25.892,25.892,0,1,0-42.9,0,20.7,20.7,0,0,0,.464,3.391c.1.434.215.863.341,1.29a7.3,7.3,0,0,0-3.06,5.952q0,.151.007.3a8.373,8.373,0,0,0-2.576,12.55,12.7,12.7,0,0,0-6.175,10.941v27.576a1.847,1.847,0,0,0,3.695,0V136.948a9.039,9.039,0,0,1,5.709-8.433l.353-.141A28.414,28.414,0,0,0,280.95,140.14a28.051,28.051,0,0,0,22.691-11.766l.355.142a9.039,9.039,0,0,1,5.709,8.433v27.575a1.847,1.847,0,0,0,3.695,0V136.948A12.706,12.706,0,0,0,307.225,126.007ZM258.752,88.016a22.2,22.2,0,1,1,42.525,8.934c-2.661-5.727-8.577-7.332-14.332-8.889C282.293,86.8,277.483,85.5,273.36,82.2a1.847,1.847,0,0,0-2.806.616,14.381,14.381,0,0,1-5.732,5.732,1.847,1.847,0,0,0,1.652,3.3,17.479,17.479,0,0,0,6.246-5.543c4.3,2.892,9.031,4.172,13.26,5.316,1.388.376,2.666.732,3.833,1.1l-.121,0a6.221,6.221,0,0,0-5.318,3,7.626,7.626,0,0,0-6.85,0,6.218,6.218,0,1,0,.862,3.91,3.71,3.71,0,0,1,5.127,0,6.218,6.218,0,1,0,10.41-5.242,8.937,8.937,0,0,1,4.869,7,1.867,1.867,0,0,0-.056.385,17.794,17.794,0,0,1-35.574,0,1.842,1.842,0,0,0-.548-1.248A22.054,22.054,0,0,1,258.752,88.016Zm33.466,10.93a2.525,2.525,0,1,1-2.525-2.525A2.527,2.527,0,0,1,292.218,98.946Zm-17.487,0a2.525,2.525,0,1,1-2.525-2.525A2.527,2.527,0,0,1,274.731,98.946Zm16.839,24.593a15.628,15.628,0,0,1-21.239,0,6.184,6.184,0,0,0,2.765-2.377,21.439,21.439,0,0,0,15.709,0A6.185,6.185,0,0,0,291.57,123.539Zm-33.332.864a4.683,4.683,0,0,1,1.624-8.059,1.847,1.847,0,0,0,1.224-2.245,3.457,3.457,0,0,1,.671-3.236,21.648,21.648,0,0,0,5.673,7.015,21.285,21.285,0,0,0,2.308,1.623,2.516,2.516,0,0,1-.967.689Zm22.712,12.043a24.276,24.276,0,0,1-19.131-9.5l4.793-1.917a19.333,19.333,0,0,0,28.675,0l4.795,1.918A24.3,24.3,0,0,1,280.95,136.445ZM303.662,124.4l-10.534-4.214a2.516,2.516,0,0,1-.966-.689,21.34,21.34,0,0,0,2.308-1.623,21.652,21.652,0,0,0,5.673-7.015,3.457,3.457,0,0,1,.671,3.236,1.847,1.847,0,0,0,1.224,2.245,4.683,4.683,0,0,1,1.624,8.059Z" transform="translate(-248.5 -62.124)"/>
    </g>
  </g>
</svg>
