<svg id="fire" xmlns="http://www.w3.org/2000/svg" width="112.163" height="107.741" viewBox="0 0 112.163 107.741">
  <path id="Path_193075" data-name="Path 193075" d="M203.245,332.035a1.642,1.642,0,0,0-1.643,1.643v7.639a1.643,1.643,0,0,0,3.286,0v-7.639A1.643,1.643,0,0,0,203.245,332.035Zm0,0" transform="translate(-157.437 -259.406)"/>
  <path id="Path_193076" data-name="Path 193076" d="M108.657,96.745c5.59-7.442,4.129-16.159-1.815-23.122a2.4,2.4,0,0,0-4.128.91c-1.349,4.8-3.93,8.027-5.236,8.937-.226-3.543,6.611-9.019,1.717-20.466-2.655-6.213-9.927-8.385-12.929-9.031a2.4,2.4,0,0,0-2.855,1.9H65.217a3.707,3.707,0,0,0-3.7,3.7v13.14a3.707,3.707,0,0,0,3.7,3.7h8.254A17.508,17.508,0,0,0,68.225,86.53c-1.564,8.22,4.146,14.328,11.485,18.425H6.026a2.739,2.739,0,1,1,0-5.478H65.192a1.643,1.643,0,1,0,0-3.286H55.4V60.015a4.151,4.151,0,0,0-4.147-4.146H29.434a4.151,4.151,0,0,0-4.146,4.146V96.191H17.329V41.113L56.081,16.581,94.833,41.113V52.728a1.643,1.643,0,0,0,3.286,0V43.193c3.566,2.036,4.894,3.729,7.7,3.729a6.349,6.349,0,0,0,3.395-11.7l-51.4-32.54a3.247,3.247,0,0,0-3.462,0L31.248,17.3V12.82h.97a4.654,4.654,0,0,0,4.648-4.647V5.147A4.654,4.654,0,0,0,32.217.5H15.095a4.654,4.654,0,0,0-4.648,4.647V8.172a4.653,4.653,0,0,0,4.648,4.647h.97v14.1L2.947,35.22a6.336,6.336,0,0,0,.334,10.9,6.255,6.255,0,0,0,6.445-.2l4.318-2.733v53H6.025a6.025,6.025,0,1,0,0,12.05H106.138a6.024,6.024,0,0,0,2.519-11.5ZM13.733,8.172V5.147a1.364,1.364,0,0,1,1.362-1.361H32.217A1.364,1.364,0,0,1,33.58,5.147V8.172a1.364,1.364,0,0,1-1.362,1.361H15.095A1.364,1.364,0,0,1,13.733,8.172Zm5.619,4.647h8.61v6.564l-8.61,5.451ZM7.967,43.151a3.012,3.012,0,0,1-3.1.095A3.05,3.05,0,0,1,4.7,38L56.081,5.472,107.458,38a3.05,3.05,0,1,1-3.262,5.154C55.565,12.585,57.176,13.289,56.081,13.289c-1.123,0,.5-.7-48.114,29.862ZM28.574,60.015a.861.861,0,0,1,.86-.86H51.251a.861.861,0,0,1,.86.86V96.191H28.574ZM64.8,72.711V59.572a.417.417,0,0,1,.417-.418H84.04c1,5.763-2.117,10.344-6.617,13.974H65.217A.418.418,0,0,1,64.8,72.711Zm6.653,14.434c2.041-10.725,9.271-9.372,14.229-18.64a15.245,15.245,0,0,0,1.379-10.946c2.895.829,7.4,2.725,9.111,6.736,4.78,11.184-3.546,14.8-1.735,20.7a2.667,2.667,0,0,0,2.6,2.018c2.767-.033,6.375-4.447,8.319-9.958C110.8,84.522,110.1,92.272,102.2,98.6c.613-4.65-1.925-7.02-3.942-5.134a3.493,3.493,0,0,1-2.239.878c-3.605.487-7.212-4.48-7.177-7.489a2.854,2.854,0,0,0-4.562-2.318c-2.469,1.844-5.764,4.851-7.441,8.7a10.226,10.226,0,0,0-.75,5.207c-4.266-3.8-5.322-7.683-4.633-11.3Zm14.779,17.283a42.31,42.31,0,0,1-6.107-3.032c-1-3.006-1.072-5.017-.276-6.845A19.579,19.579,0,0,1,85.6,87.668c.612,5.626,6.91,12.323,13.409,9.228a12.061,12.061,0,0,1-.877,4.467,45.627,45.627,0,0,1-6.569,3.115,7.3,7.3,0,0,1-5.328-.05Zm19.905.527H98.469a34.689,34.689,0,0,0,7.753-5.474,2.738,2.738,0,0,1-.085,5.474Zm0,0" transform="translate(0 -0.5)"/>
</svg>
