<svg id="motorbike" xmlns="http://www.w3.org/2000/svg" width="149.182" height="93.58" viewBox="0 0 149.182 93.58">
  <path id="Path_193073" data-name="Path 193073" d="M145.878,152.788A2.185,2.185,0,0,0,142.109,155a19.673,19.673,0,1,1-34.963,1.977l5.806,5.522a12.438,12.438,0,1,0,9.128-9.6l-5.806-5.521a19.655,19.655,0,0,1,21.618,2.592,2.185,2.185,0,0,0,2.836-3.325,24.029,24.029,0,0,0-27.78-2.43l-2.688-2.557a27.2,27.2,0,0,1,13.489-3.562,27.7,27.7,0,0,1,4.346.344,2.183,2.183,0,0,0,1.775-.506l6.9-5.972a8.791,8.791,0,0,0,2.448-3.463c1.842-4.734,1.932-13.671-1.58-17.683C128,99.82,113.7,94.4,97.381,95.569a5.424,5.424,0,0,0-4.255,8.186l.961,1.614h-4.56a2.185,2.185,0,1,0,0,4.371h7.045a15.744,15.744,0,0,1,1.407,7.1,24.194,24.194,0,0,0-35.784,4.156H46.47a5.468,5.468,0,0,1-3.413-1.2L27.068,106.944a2.185,2.185,0,0,0-1.369-.482H12.626a6.578,6.578,0,0,0-3.837,11.921l4.7,3.378a2.185,2.185,0,1,0,2.549-3.55l-4.7-3.378a2.208,2.208,0,0,1,1.288-4h12.3L40.321,123.2a9.853,9.853,0,0,0,6.15,2.164h16.54l14.151,5.409,7.789,2.977a23.459,23.459,0,0,1-14.192,4.813h-4.8a13.494,13.494,0,0,0-11.818,7.016l-3.612-2.594h0L21.967,122.468a2.185,2.185,0,1,0-2.549,3.55l25.9,18.6-4.711,2.9a24.082,24.082,0,1,0,6.718,11.414l5.173-3.183V172.13a11.34,11.34,0,0,0,11.327,11.327H74.351v1.166H60.093a2.185,2.185,0,1,0,0,4.371H76.536a2.185,2.185,0,0,0,2.185-2.185v-3.351H98.772a2.186,2.186,0,0,0,1.846-3.355,27.35,27.35,0,0,1,.036-29.3l3.17,3.015a24.046,24.046,0,1,0,42.054-1.03Zm-12.686,12.16a8.056,8.056,0,0,1-15.944,1.636l3.325,3.162a6.622,6.622,0,1,0,9.126-9.6l-3.325-3.162A8.068,8.068,0,0,1,133.192,164.948Zm1.878-50.117c1.647,3.625,1.14,9.826-.032,12.327a6.25,6.25,0,0,1,.032-12.327Zm-53.124.3a19.679,19.679,0,0,1,14.98,6.843c-2.193,5.69-6.481,7.653-7.716,8.719L70.981,123.73l-4.158-1.589A19.721,19.721,0,0,1,81.946,115.135ZM52.656,149.891c-.034.211-.067.442-.094.683L33.138,162.524l-.021.013-6.541,4.024a2.251,2.251,0,1,1-2.308-3.866l6.856-4.217.018-.011,10.226-6.29.012-.007,7.782-4.787ZM19.743,168.053a6.634,6.634,0,0,0,9.107,2.242l2.181-1.342a8.06,8.06,0,1,1-5.814-11.972L22,158.963a6.621,6.621,0,0,0-2.252,9.09Zm23.978-3.1a19.7,19.7,0,1,1-7.005-15.041L30,154.04a12.426,12.426,0,1,0,6.457,11.576l6.931-4.264a19.6,19.6,0,0,1,.336,3.6Zm51.353,14.139H63.822a6.964,6.964,0,0,1-6.956-6.957v-20.1a9.116,9.116,0,0,1,7.612-8.972c3.9-.65,12.638,1.685,22.379-5.294,6.89-4.938,13.142-8.09,15.078-17.348a20.126,20.126,0,0,0-.665-10.673h2.589a2.185,2.185,0,1,0,0-4.371H99.173l-2.29-3.849a1.053,1.053,0,0,1,.811-1.592c13.619-.973,25.648,3.017,34.267,11.282a10.618,10.618,0,0,0-.328,19.423l-3.87,3.352a31.75,31.75,0,0,0-35.752,31.486A31.683,31.683,0,0,0,95.074,179.087Zm11.495-34.9,4.606,4.38.006.006,15.507,14.747a2.252,2.252,0,0,1-3.1,3.263l-15.5-14.744-.014-.013-4.76-4.526A27.651,27.651,0,0,1,106.569,144.184Z" transform="translate(0 -95.413)"/>
  <path id="Path_193074" data-name="Path 193074" d="M235.421,340.71h-6.276a2.185,2.185,0,0,0,0,4.371h6.276a2.185,2.185,0,1,0,0-4.371Z" transform="translate(-160.83 -269.238)"/>
</svg>
