<svg id="Outline" xmlns="http://www.w3.org/2000/svg" width="119.488" height="119.535" viewBox="0 0 119.488 119.535">
  <g id="Group_12710" data-name="Group 12710" transform="translate(0 0)">
    <path id="Path_193093" data-name="Path 193093" d="M19.923,64.923H5.983V48.991a1.991,1.991,0,0,0-3.983,0V66.915a1.991,1.991,0,0,0,1.991,1.991h2.35a5.974,5.974,0,1,0,11.232,0h2.35a1.991,1.991,0,0,0,0-3.983ZM13.949,70.9a1.991,1.991,0,1,1-1.991-1.991A1.991,1.991,0,0,1,13.949,70.9Z" transform="translate(-2 42.616)"/>
    <path id="Path_193094" data-name="Path 193094" d="M109.539,63.735a1.991,1.991,0,1,0,0,3.983H119.5a1.991,1.991,0,0,0,1.991-1.991V55.77a1.991,1.991,0,0,0-1.991-1.991H91.616V13.949h13.94v5.974a1.991,1.991,0,0,0,3.983,0V11.957a1.991,1.991,0,0,0-1.991-1.991H91.616V3.991a1.991,1.991,0,1,0-3.983,0V9.966H71.7a1.991,1.991,0,0,0-1.991,1.991v5.974H65.727a1.991,1.991,0,0,0-1.991,1.991V35.855a1.991,1.991,0,0,0,1.991,1.991H69.71v7.966a27.88,27.88,0,0,1-27.88,27.88H37.846V67.718a9.957,9.957,0,0,0-3.983-7.966,9.957,9.957,0,1,0-15.932-7.966,10.5,10.5,0,0,0,.339,2.489,1.995,1.995,0,1,0,3.863-1,5.516,5.516,0,0,1-.219-1.494,5.974,5.974,0,1,1,5.974,5.974,1.991,1.991,0,0,0,0,3.983,5.974,5.974,0,0,1,5.974,5.974v7.966a1.991,1.991,0,0,0,1.991,1.991h7.966a1.991,1.991,0,0,1,0,3.983H33.863a3.983,3.983,0,0,1-3.983-3.983V67.718a1.991,1.991,0,1,0-3.983,0v9.957a7.787,7.787,0,0,0,1.115,3.983h-5.1V63.735a5.974,5.974,0,0,0-5.974-5.974H7.974A5.974,5.974,0,0,0,2,63.735V85.641a1.991,1.991,0,0,0,3.983,0V63.735a1.991,1.991,0,0,1,1.991-1.991H15.94a1.991,1.991,0,0,1,1.991,1.991v39.829a1.991,1.991,0,0,0,3.983,0V85.641H49.8a1.991,1.991,0,0,1,1.991,1.991v21.906h-23.9a1.991,1.991,0,0,0,0,3.983h14.3a5.974,5.974,0,1,0,11.232,0h.358a1.991,1.991,0,0,0,1.991-1.991V89.983A5.974,5.974,0,0,1,59.752,95.6v7.966a1.991,1.991,0,0,0,1.991,1.991h3.983a1.991,1.991,0,0,1,1.991,1.991v1.991H61.744a1.991,1.991,0,1,0,0,3.983H69.71A1.991,1.991,0,0,0,71.7,111.53v-3.983a5.974,5.974,0,0,0-5.974-5.974H63.735V95.6a9.957,9.957,0,0,0-8.284-9.778A5.974,5.974,0,0,0,49.8,81.659h-.358a5.974,5.974,0,0,0,.358-1.991,5.8,5.8,0,0,0-.757-2.848A31.863,31.863,0,0,0,73.693,45.812V37.846h3.983a1.991,1.991,0,0,0,1.991-1.991V19.923a1.991,1.991,0,0,0-1.991-1.991H73.693V13.949h13.94V53.778H77.676a1.991,1.991,0,0,0-1.991,1.991v23.9a1.991,1.991,0,0,0,1.991,1.991h9.957v21.906H79.667a1.991,1.991,0,0,0-1.991,1.991V109.9a5.974,5.974,0,1,0,3.983,0v-2.35H97.59v2.35a5.974,5.974,0,1,0,3.983,0v-4.341a1.991,1.991,0,0,0-1.991-1.991H91.616V81.659H97.59V90.4a19.118,19.118,0,0,0,19.138,19.138H119.5a1.991,1.991,0,1,0,0-3.983h-2.768A15.175,15.175,0,0,1,101.573,90.4V81.659a1.991,1.991,0,0,0,1.991-1.991V73.693a3.983,3.983,0,0,1,3.983,3.983v13.94a7.966,7.966,0,0,0,7.966,7.966H119.5a1.991,1.991,0,1,0,0-3.983h-3.983a3.983,3.983,0,0,1-3.983-3.983V77.676a7.966,7.966,0,0,0-7.966-7.966V57.761H117.5v5.974ZM49.8,115.513a1.991,1.991,0,1,1-1.991-1.991A1.991,1.991,0,0,1,49.8,115.513Zm25.889-81.65H67.718V29.88h7.966Zm0-7.966H67.718V21.915h7.966ZM79.667,117.5a1.991,1.991,0,1,1,1.991-1.991A1.991,1.991,0,0,1,79.667,117.5Zm19.915,0a1.991,1.991,0,1,1,1.991-1.991A1.991,1.991,0,0,1,99.582,117.5Zm0-39.829H95.6V65.727h3.983ZM79.667,57.761H99.582v3.983H79.667Zm0,19.915V73.693h5.974a1.991,1.991,0,0,0,0-3.983H79.667V65.727H91.616V77.676Z" transform="translate(-2 -2)"/>
  </g>
</svg>
