<svg id="outline" xmlns="http://www.w3.org/2000/svg" width="120.058" height="120.058" viewBox="0 0 120.058 120.058">
  <path id="Path_193095" data-name="Path 193095" d="M120.057,28.012h-8a2,2,0,0,0-1.8,1.107l-9.441,18.9H80.85L95.933,4.657A2,2,0,0,0,94.044,2H82.038a2,2,0,0,0-1.643.858L76.818,8H66.031A7.992,7.992,0,0,0,65.7,23.979L62.9,28.012H54.025v4h6.089l-5.569,8h-.52a4,4,0,0,1-1.335-.226l-1.333,3.774c.2.07.4.1.6.158l-2.981,4.3H46.021v4h72.035v4H104.049a2,2,0,0,0-1.829,2.813l2.043,4.6L79.7,72.034H10.384A4.386,4.386,0,0,1,6,67.651a4.432,4.432,0,0,1,2.129-3.766l6.905-4.144a2.027,2.027,0,0,0,.57-.514l1.5-2-3.2-2.4-1.267,1.687L6.068,60.458a8.388,8.388,0,0,0,4.316,15.577H48.976l3,4.3a7.988,7.988,0,0,0,2.047,15.708H62.9l2.8,4.034a7.992,7.992,0,0,0,.332,15.976H76.818L80.4,121.2a2,2,0,0,0,1.643.858H94.044a2,2,0,0,0,1.889-2.657L80.8,75.889l25.1-8.782,4.328,9.741a2,2,0,0,0,1.829,1.189h8a2,2,0,0,0,2-2V30.013A2,2,0,0,0,120.057,28.012ZM62.029,16.007a4,4,0,0,1,4-4h8l-5.567,8H66.031A4,4,0,0,1,62.029,16.007ZM76.614,48.022H53.853L83.083,6h8.146ZM54.025,92.043a4,4,0,1,1,0-8h.52l5.569,8Zm12.006,20.01a4,4,0,0,1,0-8h2.435l5.569,8Zm25.2,6H83.083l-29.23-42.02H76.614Zm26.827-44.021h-4.7l-6.225-14.007h10.927Zm0-26.012h-12.77l8-16.008h4.766Z" transform="translate(-2 -1.999)"/>
  <rect id="Rectangle_3377" data-name="Rectangle 3377" width="3.67" height="3.67" transform="translate(29.966 56.367)"/>
  <rect id="Rectangle_3378" data-name="Rectangle 3378" width="3.67" height="3.67" transform="translate(38.225 56.367)"/>
  <rect id="Rectangle_3379" data-name="Rectangle 3379" width="4.588" height="3.67" transform="translate(45.566 56.367)"/>
  <rect id="Rectangle_3380" data-name="Rectangle 3380" width="4.588" height="3.67" transform="translate(53.824 56.367)"/>
  <rect id="Rectangle_3381" data-name="Rectangle 3381" width="4.588" height="3.67" transform="translate(62.083 56.367)"/>
  <rect id="Rectangle_3382" data-name="Rectangle 3382" width="4.588" height="3.67" transform="translate(69.424 56.367)"/>
  <rect id="Rectangle_3383" data-name="Rectangle 3383" width="3.67" height="3.67" transform="translate(78.6 56.367)"/>
  <path id="Path_193096" data-name="Path 193096" d="M15.557,52.6l9.5,5.18a2,2,0,0,0,1.917,0l9.5-5.18A26,26,0,0,0,50.023,29.766V12.005a2,2,0,0,0-2-2A32.346,32.346,0,0,1,27.89,2.943l-.628-.5a2,2,0,0,0-2.5,0l-.628.5A32.346,32.346,0,0,1,4,10a2,2,0,0,0-2,2V29.766A26,26,0,0,0,15.557,52.6ZM6,13.95a36.375,36.375,0,0,0,20.01-7.4,36.376,36.376,0,0,0,20.01,7.4V29.758A22.011,22.011,0,0,1,34.55,49.081l-8.538,4.666-8.538-4.658A22.011,22.011,0,0,1,6,29.766Z" transform="translate(-2 -2)"/>
  <path id="Path_193097" data-name="Path 193097" d="M15.387,40.666l5.663,3.089a2,2,0,0,0,1.917,0l5.665-3.089a18,18,0,0,0,9.384-15.808V14.327a2,2,0,0,0-1.621-1.963A40.331,40.331,0,0,1,23.05,7.2a2,2,0,0,0-2.085,0A40.331,40.331,0,0,1,7.621,12.364,2,2,0,0,0,6,14.327V24.856a18,18,0,0,0,9.387,15.81ZM10,15.948A44.257,44.257,0,0,0,22.008,11.23a44.257,44.257,0,0,0,12.006,4.718v8.908a14.007,14.007,0,0,1-7.3,12.3l-4.707,2.569L17.3,37.152h0a14.007,14.007,0,0,1-7.3-12.3Z" transform="translate(2.004 2.91)"/>
  <rect id="Rectangle_3384" data-name="Rectangle 3384" width="4.588" height="3.67" transform="translate(21.708 34.344)"/>
  <rect id="Rectangle_3385" data-name="Rectangle 3385" width="3.67" height="4.588" transform="translate(16.202 21.497)"/>
  <rect id="Rectangle_3386" data-name="Rectangle 3386" width="3.67" height="4.588" transform="translate(28.131 21.497)"/>
</svg>
