<svg xmlns="http://www.w3.org/2000/svg" width="113.215" height="113.215" viewBox="0 0 113.215 113.215">
  <path id="police-station" d="M56.93,30.085l.677.272.677-.272a16.269,16.269,0,0,0,10.279-15.18V11.956h-2.14A10.567,10.567,0,0,1,58.9,8.839L57.607,7.546,56.316,8.839a10.571,10.571,0,0,1-7.525,3.117h-2.14v2.949A16.269,16.269,0,0,0,56.93,30.085Zm.677-17.517a14.155,14.155,0,0,0,7.29,2.96A12.629,12.629,0,0,1,57.607,26.4a12.627,12.627,0,0,1-7.29-10.874A14.139,14.139,0,0,0,57.607,12.568Zm52.955,14h-3.652V1H85V15.608h18.26V26.565H81.346V24.739a23.739,23.739,0,0,0-47.477,0v1.826h-7.3V1H4.652V15.608h18.26V26.565H4.652A3.656,3.656,0,0,0,1,30.217v3.652a3.656,3.656,0,0,0,3.652,3.652H8.3V66.738H4.652A3.656,3.656,0,0,0,1,70.39v3.652a3.656,3.656,0,0,0,3.652,3.652v36.521H110.563V77.694a3.656,3.656,0,0,0,3.652-3.652V70.39a3.656,3.656,0,0,0-3.652-3.652h-3.652V37.521h3.652a3.656,3.656,0,0,0,3.652-3.652V30.217A3.656,3.656,0,0,0,110.563,26.565ZM88.65,11.956v-7.3h14.608v7.3Zm-80.346,0v-7.3H22.913v7.3Zm49.3-7.3A20.11,20.11,0,0,1,77.694,24.739v9.13H37.521v-9.13A20.11,20.11,0,0,1,57.607,4.652ZM4.652,30.217H33.869v3.652H4.652Zm0,40.173H33.869v3.652H4.652Zm76.694-3.652v-7.3h7.3v7.3ZM55.781,103.259v7.3H44.825V92.3H55.781v7.3H52.129v3.652Zm3.652,0h3.652V99.606H59.433V92.3H70.39v18.26H59.433ZM41.173,88.65v21.913H37.521V81.346H77.694v29.217H74.042V88.65ZM77.694,63.086h-7.3V59.433h7.3Zm-40.173,7.3V66.738H77.694V70.39Zm40.173,3.652v3.652H37.521V74.042ZM66.738,63.086h-7.3V59.433h7.3Zm-10.956,0h-7.3V59.433h7.3Zm-10.956,0h-7.3V59.433h7.3Zm43.825-7.3h-7.3v-7.3h7.3Zm-10.956,0h-7.3v-7.3h7.3Zm-10.956,0h-7.3v-7.3h7.3Zm-10.956,0h-7.3v-7.3h7.3Zm-10.956,0h-7.3v-7.3h7.3Zm-10.956,0h-7.3v-7.3h7.3Zm-7.3,3.652h7.3v7.3h-7.3ZM8.3,77.694H33.869v32.869H8.3Zm98.606,32.869H81.346V77.694h25.565Zm3.652-36.521H81.346V70.39h29.217Zm-7.3-7.3H92.3V44.825H22.913V66.738H11.956V37.521h91.3Zm7.3-32.869H81.346V30.217h29.217Zm-7.3,69.39V85H85v18.26Zm-14.608-7.3H92.3v3.652H88.65Zm7.3,3.652V95.954h3.652v3.652Zm3.652-7.3H95.954V88.65h3.652ZM92.3,88.65V92.3H88.65V88.65ZM11.956,85v18.26h18.26V85Zm14.608,7.3H22.913V88.65h3.652Zm-7.3-3.652V92.3H15.608V88.65Zm-3.652,7.3H19.26v3.652H15.608Zm7.3,3.652V95.954h3.652v3.652Z" transform="translate(-1 -1)"/>
</svg>
